HIERARCHY
ROOT Hips
{
	OFFSET	0.00	0.00	0.00
	CHANNELS 6 Xposition Yposition Zposition Zrotation Xrotation Yrotation
	JOINT Chest
	{
		OFFSET	0.00	6.28	0.00
		CHANNELS 3 Zrotation Xrotation Yrotation
		JOINT Neck
		{
			OFFSET	0.00	14.30	0.00
			CHANNELS 3 Zrotation Xrotation Yrotation
			JOINT Head
			{
				OFFSET	0.00	2.64	0.00
				CHANNELS 3 Zrotation Xrotation Yrotation
				End Site
				{
					OFFSET	0.00	4.50	0.00
				}
			}
		}
		JOINT LeftCollar
		{
			OFFSET	1.12	11.36	1.87
			CHANNELS 3 Zrotation Xrotation Yrotation
			JOINT LeftUpArm
			{
				OFFSET	4.57	2.02	-1.82
				CHANNELS 3 Zrotation Xrotation Yrotation
				JOINT LeftLowArm
				{
					OFFSET	0.22	-10.35	-0.06
					CHANNELS 3 Zrotation Xrotation Yrotation
					JOINT LeftHand
					{
						OFFSET	0.09	-10.35	2.18
						CHANNELS 3 Zrotation Xrotation Yrotation
						End Site
						{
							OFFSET	0.13	-6.69	1.71
						}
					}
				}
			}
		}
		JOINT RightCollar
		{
			OFFSET	-1.12	11.36	1.87
			CHANNELS 3 Zrotation Xrotation Yrotation
			JOINT RightUpArm
			{
				OFFSET	-4.71	2.03	-1.82
				CHANNELS 3 Zrotation Xrotation Yrotation
				JOINT RightLowArm
				{
					OFFSET	-0.26	-10.43	-0.06
					CHANNELS 3 Zrotation Xrotation Yrotation
					JOINT RightHand
					{
						OFFSET	0.00	-10.26	2.18
						CHANNELS 3 Zrotation Xrotation Yrotation
						End Site
						{
							OFFSET	-0.14	-6.67	1.71
						}
					}
				}
			}
		}
	}
	JOINT LeftUpLeg
	{
		OFFSET	3.91	0.00	0.00
		CHANNELS 3 Zrotation Xrotation Yrotation
		JOINT LeftLowLeg
		{
			OFFSET	-0.44	-17.57	1.70
			CHANNELS 3 Zrotation Xrotation Yrotation
			JOINT LeftFoot
			{
				OFFSET	-0.04	-17.20	-1.48
				CHANNELS 3 Zrotation Xrotation Yrotation
				End Site
				{
					OFFSET	0.00	-3.93	5.23
				}
			}
		}
	}
	JOINT RightUpLeg
	{
		OFFSET	-3.91	0.00	0.00
		CHANNELS 3 Zrotation Xrotation Yrotation
		JOINT RightLowLeg
		{
			OFFSET	0.44	-17.62	1.70
			CHANNELS 3 Zrotation Xrotation Yrotation
			JOINT RightFoot
			{
				OFFSET	0.00	-17.14	-1.48
				CHANNELS 3 Zrotation Xrotation Yrotation
				End Site
				{
					OFFSET	0.00	-4.04	5.23
				}
			}
		}
	}
}
MOTION
Frames: 27
Frame Time: 0.04
8.16	4.78	10.23	-3.66	1.24	-64.46	1.92	-5.71	1.10	1.15	14.69	-20.87	4.97	-2.74	1.70	-4.48	-6.46	-8.22	17.19	3.09	-27.66	-4.12	2.14	3.52	-4.55	2.50	-0.97	4.19	-8.03	7.08	-12.17	13.57	16.00	-0.66	5.97	0.17	11.09	2.63	2.36	4.31	-4.48	-0.52	-4.01	20.19	-8.75	0.16	-11.08	-0.13	1.70	1.85	-25.46	4.22	11.45	16.33	-5.85	-6.19	5.00	
8.19	4.77	10.26	-3.76	1.33	-65.59	1.99	-5.56	0.97	1.39	14.64	-19.80	4.61	-2.62	1.56	-4.41	-6.49	-8.38	16.73	3.25	-25.79	-4.85	1.73	4.05	-4.56	2.50	-0.97	4.26	-8.15	7.00	-11.85	13.71	16.73	-0.57	5.97	0.14	11.14	2.63	2.38	4.36	-4.30	0.39	-3.95	20.30	-8.50	0.38	-11.26	-0.11	1.62	1.67	-24.48	4.27	11.71	16.49	-5.80	-6.09	5.01	
8.21	4.76	10.28	-3.94	1.37	-66.71	1.96	-5.31	0.90	1.74	14.56	-18.88	4.28	-2.27	1.43	-4.14	-6.53	-8.50	16.14	3.36	-23.76	-5.39	1.72	4.57	-4.66	2.50	-0.99	4.35	-8.34	6.87	-11.37	13.76	17.99	-0.48	5.96	0.07	10.95	2.62	2.34	4.43	-4.00	1.27	-3.90	20.41	-8.29	0.53	-11.43	-0.09	1.55	1.65	-23.60	4.32	11.93	16.72	-5.80	-6.05	5.02	
8.24	4.76	10.31	-4.07	1.42	-67.63	2.03	-5.00	0.62	1.92	14.38	-17.97	4.00	-1.95	1.31	-4.11	-6.27	-8.41	15.84	3.14	-24.21	-5.68	1.60	4.81	-4.22	2.50	-0.90	4.55	-8.16	6.76	-11.13	13.24	18.76	-0.53	5.94	0.08	11.02	2.62	2.35	4.47	-3.82	1.95	-3.85	20.50	-8.09	0.63	-11.53	-0.08	1.52	1.63	-22.98	4.36	12.01	16.99	-5.78	-5.99	5.02	
8.26	4.76	10.33	-4.13	1.48	-68.42	2.05	-4.75	0.38	2.11	14.20	-17.17	3.69	-1.78	1.20	-4.01	-6.04	-8.40	15.62	3.04	-26.47	-5.83	1.40	4.78	-3.82	2.49	-0.81	4.73	-8.06	6.65	-10.71	12.60	17.68	-0.92	5.90	0.15	11.63	2.65	2.48	4.49	-3.67	2.57	-3.80	20.50	-7.91	0.63	-11.61	-0.08	1.47	1.51	-22.43	4.39	12.16	17.19	-5.83	-5.86	5.04	
8.27	4.76	10.34	-4.22	1.55	-69.14	1.19	-4.11	0.62	3.69	13.53	-16.94	2.98	-1.76	0.97	-3.69	-5.14	-7.83	16.33	1.87	-31.05	-5.66	1.34	4.61	-4.08	2.49	-0.87	6.38	-8.51	5.61	-11.21	12.09	19.27	-1.16	5.86	0.24	11.00	2.62	2.35	4.58	-3.50	3.22	-3.78	20.55	-7.81	0.70	-11.68	-0.07	1.53	1.52	-21.55	4.38	12.14	17.08	-5.84	-5.80	5.04	
8.26	4.76	10.35	-4.28	1.62	-69.65	1.14	-3.96	0.31	3.92	13.44	-16.31	2.69	-1.76	0.87	-3.62	-4.81	-7.99	16.56	2.10	-38.71	-4.87	1.16	4.09	-4.57	2.50	-0.97	6.62	-8.42	5.51	-11.17	11.51	21.58	-1.51	5.82	0.46	10.03	2.58	2.14	4.67	-3.42	3.64	-3.76	20.63	-7.70	0.69	-11.72	-0.07	1.63	1.50	-20.97	4.36	12.12	16.92	-5.82	-5.72	5.05	
8.44	4.79	10.47	-4.16	0.92	-69.96	2.12	-2.71	-0.92	1.78	12.44	-14.79	2.73	-1.70	0.88	-5.62	-2.56	-6.84	17.66	-0.89	-43.58	-4.94	0.71	4.17	-5.31	2.51	-1.13	5.88	-4.63	5.15	-12.53	6.11	23.63	-1.89	5.84	0.55	10.04	2.59	2.14	3.42	-3.02	3.12	-3.45	19.66	-6.81	0.61	-11.04	-0.09	0.56	1.23	-21.19	4.42	12.56	17.34	-5.77	-5.64	5.06	
8.28	4.77	10.38	-4.35	1.50	-70.04	1.54	-3.93	-0.88	3.16	13.62	-15.15	2.49	-1.68	0.80	-3.56	-4.90	-9.07	16.48	3.27	-44.26	-6.33	0.68	5.23	-5.79	2.52	-1.23	6.05	-7.71	6.00	-11.31	10.07	23.74	-2.09	5.83	0.62	10.50	2.60	2.24	4.45	-3.08	4.00	-3.67	20.30	-7.50	0.87	-11.62	-0.06	1.52	1.56	-20.57	4.35	12.09	16.81	-5.83	-5.59	5.06	
8.28	4.77	10.40	-4.34	1.50	-70.08	1.54	-3.78	-1.20	3.23	13.45	-15.01	2.32	-1.65	0.75	-3.68	-4.53	-9.13	16.73	2.95	-46.74	-6.63	0.46	5.52	-6.85	2.55	-1.45	6.19	-7.44	5.85	-11.58	9.24	23.66	-2.37	5.86	0.73	10.93	2.62	2.33	4.38	-3.09	3.98	-3.65	20.32	-7.41	0.87	-11.62	-0.06	1.45	1.49	-20.41	4.34	12.23	16.74	-5.83	-5.59	5.06	
8.28	4.76	10.42	-4.35	1.47	-70.07	1.54	-3.69	-1.43	3.23	13.37	-14.99	2.28	-1.61	0.73	-3.73	-4.34	-9.22	16.79	2.80	-47.54	-7.03	0.48	5.79	-7.72	2.57	-1.64	6.30	-7.30	5.80	-11.73	8.66	23.12	-2.56	5.84	0.88	10.82	2.62	2.31	4.32	-3.08	3.96	-3.64	20.33	-7.38	0.92	-11.61	-0.05	1.12	1.20	-18.55	4.28	13.01	15.67	-6.07	-5.80	5.04	
8.39	4.77	10.49	-4.18	1.48	-70.95	2.55	-3.10	-1.05	2.17	12.65	-14.49	2.28	-1.54	0.73	-5.12	-3.03	-8.14	17.49	0.77	-48.75	-7.29	0.52	6.00	-7.83	2.58	-1.66	6.16	-5.40	5.36	-12.78	5.64	22.05	-2.70	5.87	0.86	10.65	2.61	2.27	4.06	-3.16	4.55	-3.54	20.20	-7.05	1.00	-11.52	-0.05	0.84	0.74	-17.91	4.30	13.25	15.89	-5.99	-5.65	5.06	
8.37	4.77	10.49	-4.14	1.47	-70.89	2.56	-3.26	-1.15	2.18	12.77	-14.54	2.33	-1.47	0.74	-5.06	-3.27	-8.45	17.29	1.26	-48.49	-7.53	0.55	6.20	-7.49	2.57	-1.59	6.13	-5.61	5.48	-12.70	5.64	20.65	-2.76	5.90	0.89	10.56	2.61	2.25	4.02	-3.12	4.59	-3.55	20.08	-7.09	1.11	-11.55	-0.03	1.09	1.00	-20.01	4.38	12.50	17.05	-5.80	-5.42	5.08	
8.35	4.77	10.49	-4.11	1.48	-70.77	2.47	-3.55	-1.21	2.29	13.04	-14.67	2.40	-1.35	0.76	-4.82	-3.76	-8.89	16.92	2.10	-49.31	-7.41	0.16	6.27	-6.20	2.53	-1.31	6.00	-6.08	5.67	-12.35	6.08	19.94	-2.71	5.89	0.93	10.69	2.61	2.28	4.06	-3.17	4.50	-3.57	20.13	-7.17	1.10	-11.54	-0.04	1.11	1.01	-20.00	4.37	12.51	16.96	-5.72	-5.48	5.07	
8.34	4.77	10.49	-4.09	1.49	-70.57	2.50	-3.73	-1.35	2.27	13.20	-14.71	2.40	-1.17	0.75	-4.69	-4.14	-9.11	16.76	2.77	-47.98	-7.52	0.55	6.22	-6.31	2.54	-1.34	5.94	-6.39	5.81	-12.30	6.27	19.81	-2.52	5.84	0.87	11.15	2.63	2.38	4.08	-3.23	4.36	-3.59	20.18	-7.21	1.10	-11.54	-0.03	1.11	1.02	-20.13	4.37	12.52	16.93	-5.75	-5.53	5.07	
8.35	4.76	10.50	-4.05	1.51	-70.28	2.61	-3.77	-1.53	2.17	13.17	-14.76	2.39	-0.98	0.74	-4.82	-4.00	-9.01	16.81	2.51	-45.81	-7.58	0.72	6.15	-6.23	2.53	-1.32	5.97	-6.20	5.76	-12.46	5.80	20.22	-2.42	5.82	0.82	11.62	2.65	2.48	4.05	-3.36	4.06	-3.58	20.25	-7.19	1.09	-11.54	-0.04	1.13	1.04	-20.56	4.38	12.45	17.03	-5.80	-5.54	5.07	
8.34	4.76	10.49	-4.05	1.52	-69.88	2.60	-3.82	-1.72	2.17	13.24	-14.96	2.45	-0.93	0.76	-4.87	-3.91	-9.05	16.94	2.41	-45.44	-7.51	0.72	6.11	-5.81	2.53	-1.23	6.07	-6.12	5.73	-12.57	5.59	21.18	-2.29	5.80	0.77	11.88	2.66	2.53	4.04	-3.47	3.68	-3.59	20.31	-7.19	1.10	-11.53	-0.03	1.17	1.09	-20.92	4.37	12.40	17.01	-5.85	-5.57	5.07	
8.39	4.76	10.51	-3.93	1.52	-69.86	2.98	-3.70	-1.67	1.73	13.07	-14.98	2.54	-1.00	0.79	-5.34	-3.59	-8.64	17.22	1.75	-46.34	-7.30	0.75	6.00	-5.27	2.51	-1.12	5.92	-5.51	5.66	-12.88	4.62	22.28	-2.18	5.77	0.72	12.05	2.67	2.57	3.91	-3.66	3.51	-3.55	20.34	-7.02	1.11	-11.49	-0.04	1.05	0.88	-21.00	4.37	12.54	17.07	-5.83	-5.58	5.06	
8.41	4.75	10.53	-3.86	1.50	-69.70	3.23	-3.67	-1.68	1.40	13.01	-15.03	2.64	-0.99	0.82	-5.57	-3.60	-8.38	17.25	1.45	-46.17	-7.20	0.85	5.90	-4.89	2.51	-1.04	5.45	-5.24	5.76	-12.59	4.20	23.93	-2.13	5.73	0.72	12.00	2.67	2.56	3.80	-3.80	3.23	-3.51	20.35	-6.90	1.07	-11.45	-0.04	0.97	0.75	-21.10	4.36	12.64	17.02	-5.77	-5.63	5.06	
8.56	4.67	10.55	-0.50	2.16	-67.56	2.95	-8.24	-3.72	0.74	14.12	-14.95	2.71	-0.90	0.84	-5.30	-5.99	-9.33	15.93	4.83	-45.87	-7.08	0.87	5.83	-4.43	2.50	-0.94	4.14	-6.92	7.02	-11.47	7.00	24.47	-2.00	5.68	0.66	12.04	2.67	2.56	2.66	-8.21	0.49	-3.35	21.09	-6.18	0.95	-11.31	-0.05	-0.22	-3.35	-23.63	4.54	14.43	17.25	-6.12	-6.48	4.97	
8.57	4.66	10.55	-0.48	2.15	-67.36	2.99	-8.31	-3.68	0.69	14.20	-15.08	2.73	-0.81	0.84	-5.21	-6.22	-9.43	15.73	4.97	-44.94	-7.04	1.02	5.73	-4.24	2.50	-0.90	4.02	-7.11	7.10	-11.33	7.18	25.38	-1.90	5.64	0.62	12.25	2.68	2.61	2.62	-8.27	0.29	-3.35	21.10	-6.19	0.96	-11.28	-0.05	-0.25	-3.38	-23.76	4.53	14.47	17.17	-6.08	-6.52	4.97	
8.57	4.66	10.54	-0.45	2.13	-67.15	2.92	-8.35	-3.65	0.75	14.25	-15.19	2.69	-0.74	0.82	-5.15	-6.21	-9.50	15.66	4.83	-43.35	-7.10	1.19	5.68	-4.23	2.50	-0.90	4.09	-7.15	7.07	-11.38	7.16	26.31	-1.71	5.57	0.53	12.49	2.69	2.66	2.59	-8.34	0.14	-3.36	21.10	-6.23	0.97	-11.24	-0.05	-0.28	-3.41	-23.91	4.53	14.51	17.12	-6.11	-6.55	4.96	
8.57	4.66	10.54	-0.39	2.12	-66.96	2.91	-8.43	-3.72	0.71	14.32	-15.17	2.64	-0.68	0.81	-5.15	-6.22	-9.52	15.68	4.89	-43.65	-7.16	1.10	5.74	-4.02	2.49	-0.85	4.12	-7.15	7.10	-11.41	7.08	26.39	-1.67	5.59	0.43	12.90	2.71	2.74	2.54	-8.42	-0.00	-3.37	21.10	-6.26	0.95	-11.22	-0.06	-0.31	-3.46	-24.10	4.52	14.55	17.08	-6.11	-6.59	4.96	
8.58	4.66	10.53	-0.37	2.12	-66.81	2.17	-7.98	-3.41	1.92	13.86	-15.62	2.22	-0.67	0.68	-4.94	-5.63	-8.81	16.42	3.82	-45.86	-7.10	0.97	5.76	-3.86	2.49	-0.82	5.47	-7.49	6.13	-12.11	6.91	27.69	-1.64	5.56	0.48	12.85	2.70	2.74	2.52	-8.47	-0.13	-3.37	21.12	-6.28	0.94	-11.20	-0.06	-0.67	-3.84	-21.35	4.40	15.55	15.43	-6.71	-6.84	4.93	
8.58	4.66	10.53	-0.34	2.11	-66.67	2.18	-8.05	-3.46	1.93	13.94	-15.68	2.21	-0.61	0.67	-4.83	-5.79	-8.94	16.23	4.08	-45.57	-7.21	0.92	5.85	-3.99	2.49	-0.85	5.41	-7.64	6.19	-12.03	7.03	28.00	-1.59	5.52	0.48	12.77	2.70	2.72	2.50	-8.54	-0.22	-3.38	21.12	-6.31	0.94	-11.16	-0.06	-0.58	-3.78	-22.22	4.42	15.29	15.78	-6.30	-6.84	4.93	
8.58	4.67	10.52	-0.61	1.99	-66.61	2.24	-7.65	-3.52	1.84	13.88	-15.67	2.26	-0.52	0.68	-4.85	-5.74	-8.84	16.18	3.96	-45.01	-7.34	0.93	5.92	-4.31	2.50	-0.92	5.35	-7.56	6.20	-12.03	6.81	28.55	-1.62	5.50	0.56	12.79	2.70	2.72	2.50	-8.17	-0.23	-3.38	20.99	-6.36	0.94	-11.10	-0.06	-0.62	-3.45	-21.46	4.37	15.33	15.37	-6.73	-6.84	4.93	
8.57	4.68	10.52	-0.88	1.86	-66.56	2.27	-7.27	-3.57	1.81	13.82	-15.67	2.30	-0.42	0.69	-5.02	-5.49	-8.73	16.36	3.75	-45.60	-7.33	0.91	5.93	-4.50	2.50	-0.96	5.43	-7.30	6.12	-12.17	6.42	28.47	-1.67	5.52	0.58	12.87	2.71	2.74	2.51	-7.82	-0.19	-3.40	20.89	-6.45	0.96	-11.05	-0.06	-0.61	-3.15	-21.49	4.36	15.31	15.34	-6.69	-6.78	4.93	
